<svg fill="none" height="22" viewBox="0 0 22 22" width="22" xmlns="http://www.w3.org/2000/svg">
    <path
        d="M19.1491 9.44468C19.265 8.66744 19.227 7.87173 19.0352 7.10663C18.7817 6.09592 18.2598 5.13873 17.4694 4.34834C16.679 3.55795 15.7218 3.03603 14.7111 2.7826C13.946 2.59075 13.1503 2.55276 12.373 2.66861"
        stroke="#8C8C8C" stroke-linecap="round" stroke-linejoin="round" stroke-width="2" />
    <path
        d="M15.6704 9.07661C15.7945 8.24401 15.5361 7.36538 14.8951 6.72445C14.2542 6.08351 13.3755 5.82506 12.543 5.94918"
        stroke="#8C8C8C" stroke-linecap="round" stroke-linejoin="round" stroke-width="2" />
    <path
        d="M6.58922 4.0307C6.92224 4.0307 7.22905 4.21129 7.39066 4.50244L8.51197 6.52223C8.65878 6.78669 8.66565 7.10656 8.5304 7.37712L7.4502 9.53752C7.4502 9.53752 7.76324 11.147 9.07334 12.4571C10.3834 13.7672 11.9875 14.0748 11.9875 14.0748L14.1475 12.9948C14.4183 12.8594 14.7384 12.8664 15.0029 13.0135L17.0284 14.1396C17.3193 14.3013 17.4997 14.608 17.4997 14.9408V17.2661C17.4997 18.4503 16.3998 19.3056 15.2777 18.927C12.9733 18.1494 9.3961 16.6689 7.12882 14.4016C4.86149 12.1343 3.38098 8.55714 2.6034 6.25269C2.2248 5.13064 3.0801 4.0307 4.26427 4.0307H6.58922Z"
        stroke="#8C8C8C" stroke-linejoin="round" stroke-width="2" />
</svg>
