<svg fill="none" height="48" viewBox="0 0 48 48" width="48" xmlns="http://www.w3.org/2000/svg">
    <rect fill="white" fill-opacity="0.12" height="48" rx="24" width="48" />
    <path
        d="M32.8897 22.3033C33.0161 21.4554 32.9746 20.5874 32.7653 19.7527C32.4889 18.6501 31.9195 17.6059 31.0572 16.7437C30.195 15.8814 29.1508 15.312 28.0482 15.0356C27.2136 14.8263 26.3455 14.7848 25.4976 14.9112"
        stroke="white" stroke-linecap="round" stroke-linejoin="round" stroke-width="2" />
    <path
        d="M29.0948 21.9017C29.2302 20.9934 28.9483 20.0349 28.2491 19.3357C27.5499 18.6365 26.5914 18.3546 25.6831 18.49"
        stroke="white" stroke-linecap="round" stroke-linejoin="round" stroke-width="2" />
    <path
        d="M19.1878 16.3971C19.5511 16.3971 19.8858 16.5941 20.0621 16.9117L21.2854 19.1151C21.4455 19.4036 21.453 19.7526 21.3055 20.0477L20.1271 22.4045C20.1271 22.4045 20.4686 24.1603 21.8978 25.5895C23.327 27.0187 25.0768 27.3543 25.0768 27.3543L27.4333 26.1761C27.7286 26.0284 28.0778 26.036 28.3664 26.1965L30.5761 27.425C30.8934 27.6014 31.0902 27.9359 31.0902 28.299V30.8357C31.0902 32.1276 29.8902 33.0606 28.6662 32.6476C26.1522 31.7993 22.2499 30.1842 19.7765 27.7108C17.303 25.2374 15.6879 21.335 14.8397 18.8211C14.4267 17.597 15.3597 16.3971 16.6515 16.3971H19.1878Z"
        stroke="white" stroke-linejoin="round" stroke-width="2" />
</svg>
