<svg fill="none" height="48" viewBox="0 0 48 48" width="48" xmlns="http://www.w3.org/2000/svg">
    <rect fill="#FF5722" height="48" rx="24" width="48" />
    <path
        d="M32.8901 22.3033C33.0165 21.4554 32.9751 20.5874 32.7658 19.7527C32.4893 18.6501 31.9199 17.6059 31.0577 16.7437C30.1954 15.8814 29.1512 15.312 28.0487 15.0356C27.214 14.8263 26.3459 14.7848 25.498 14.9112"
        stroke="white" stroke-linecap="round" stroke-linejoin="round" stroke-width="2" />
    <path
        d="M29.0943 21.9017C29.2297 20.9934 28.9478 20.0349 28.2486 19.3357C27.5494 18.6365 26.5909 18.3546 25.6826 18.49"
        stroke="white" stroke-linecap="round" stroke-linejoin="round" stroke-width="2" />
    <path
        d="M19.1874 16.3971C19.5507 16.3971 19.8854 16.5941 20.0617 16.9117L21.2849 19.1151C21.4451 19.4036 21.4526 19.7526 21.305 20.0477L20.1266 22.4045C20.1266 22.4045 20.4681 24.1603 21.8973 25.5895C23.3265 27.0187 25.0764 27.3543 25.0764 27.3543L27.4328 26.1761C27.7282 26.0284 28.0774 26.036 28.366 26.1965L30.5756 27.425C30.8929 27.6014 31.0897 27.9359 31.0897 28.299V30.8357C31.0897 32.1276 29.8898 33.0606 28.6657 32.6476C26.1518 31.7993 22.2494 30.1842 19.776 27.7108C17.3026 25.2374 15.6875 21.335 14.8392 18.8211C14.4262 17.597 15.3592 16.3971 16.651 16.3971H19.1874Z"
        fill="white" stroke="white" stroke-linejoin="round" stroke-width="2" />
</svg>
