<svg fill="none" height="22" viewBox="0 0 23 22" width="23" xmlns="http://www.w3.org/2000/svg">
    <g clip-path="url(#clip0_236_1708)">
        <path
            d="M11.4999 8.99994V13.2599H17.4199C17.1599 14.6299 16.3798 15.79 15.2098 16.57L18.7798 19.34C20.8598 17.4201 22.0598 14.6 22.0598 11.25C22.0598 10.4701 21.9898 9.71999 21.8598 9.00006L11.4999 8.99994Z"
            fill="#4285F4" />
        <path
            d="M5.33514 13.0937L4.52998 13.71L1.67993 15.93C3.48993 19.52 7.19965 22 11.4996 22C14.4695 22 16.9595 21.02 18.7796 19.34L15.2096 16.57C14.2296 17.23 12.9796 17.6301 11.4996 17.6301C8.63963 17.6301 6.2097 15.7001 5.33964 13.1L5.33514 13.0937Z"
            fill="#34A853" />
        <path
            d="M1.67991 6.07001C0.929955 7.54995 0.5 9.21997 0.5 10.9999C0.5 12.7799 0.929955 14.4499 1.67991 15.9299C1.67991 15.9398 5.33998 13.0899 5.33998 13.0899C5.11998 12.4299 4.98994 11.7299 4.98994 10.9998C4.98994 10.2697 5.11998 9.56977 5.33998 8.90978L1.67991 6.07001Z"
            fill="#FBBC05" />
        <path
            d="M11.4998 4.38C13.1199 4.38 14.5598 4.93998 15.7098 6.02L18.8598 2.87004C16.9498 1.09007 14.4699 0 11.4998 0C7.19988 0 3.48993 2.47 1.67993 6.07001L5.33988 8.91001C6.20983 6.30998 8.63986 4.38 11.4998 4.38Z"
            fill="#EA4335" />
    </g>
    <defs>
        <clipPath id="clip0_236_1708">
            <rect fill="white" height="22" transform="translate(0.5)" width="22" />
        </clipPath>
    </defs>
</svg>
