<svg fill="none" height="120" viewBox="0 0 129 120" width="129" xmlns="http://www.w3.org/2000/svg">
    <path
        d="M108.784 0.87446C75.2137 10.1729 42.7511 22.1687 11.5108 37.1355C2.44418 41.4933 -0.0493352 53.2935 6.51099 60.9348L16.855 72.977C23.2392 80.4226 0.695961 102.176 0.695961 102.176L0.801202 102.285C18.3277 89.753 35.212 77.21 49.1103 64.525C45.8628 57.8146 47.6889 49.5694 57.9073 41.5036C59.2984 40.4215 78.7334 28.4428 83.8181 25.3066C84.5085 24.8855 85.4406 25.0687 86.006 25.7195C86.6515 26.4727 86.595 27.5899 85.8734 28.1779L59.8084 49.6317C59.0392 50.2474 58.9141 51.3192 59.4978 52.0019C60.1066 52.6913 61.1953 52.7413 61.9395 52.1189L87.8736 30.4007C88.57 29.806 89.6386 29.9314 90.259 30.6779L90.3367 30.7392C90.9663 31.5016 90.9324 32.5845 90.2201 33.1885L64.565 55.1704C63.8208 55.7928 63.689 56.8898 64.2887 57.5633C64.8815 58.2619 65.9611 58.2959 66.6961 57.6576L92.1725 35.4389C92.8598 34.8282 93.9442 34.9444 94.5897 35.6977L94.6515 35.7682C95.2878 36.5055 95.2539 37.5884 94.5667 38.199L69.3215 60.7091C68.5866 61.3474 68.4799 62.4512 69.0636 63.1339C69.6565 63.8325 70.7268 63.8505 71.4526 63.1963L96.4555 40.4863C97.1587 39.8664 98.259 39.9734 98.9045 40.7266C99.4699 41.3774 99.5105 42.332 98.9805 42.958C95.1342 47.546 80.4558 65.0634 79.1791 66.2707C69.7207 75.2147 61.3342 75.8187 55.1762 71.602C40.6232 83.5178 25.7624 98.3977 10.8271 113.959L10.9072 114.061C10.9072 114.061 35.6959 94.9201 42.0868 102.341L52.4308 114.383C59.0003 122.04 70.9978 121.301 76.6331 112.934C96.0095 84.1682 112.63 53.7451 126.75 21.8141C131.951 10.0406 121.147 -2.54321 108.784 0.87446Z"
        fill="white" />
    <path
        d="M108.784 0.87446C75.2137 10.1729 42.7511 22.1687 11.5108 37.1355C2.69185 41.3711 0.100256 52.6327 5.98657 60.2816C11.0947 57.8123 17.6377 53.3425 27.8314 48.4383C36.6888 44.1591 46.6746 43.2031 56.4348 42.7392C56.8953 42.3237 57.3967 41.9057 57.9073 41.5036C59.2984 40.4215 78.7334 28.4428 83.8181 25.3066C84.5085 24.8855 85.4406 25.0687 86.006 25.7195C86.6515 26.4727 86.595 27.5899 85.8734 28.1779L68.8544 42.1812C70.7143 42.0609 72.565 41.9248 74.3381 41.7273L87.8736 30.4007C88.57 29.806 89.6386 29.9314 90.259 30.6779L90.3367 30.7392C90.9663 31.5016 90.9324 32.5845 90.2201 33.1885L81.6449 40.5365C84.4838 39.8705 87.16 38.9586 89.6 37.673L92.1725 35.4389C92.5718 35.1013 93.0995 34.9871 93.5919 35.1059C96.2059 33.0179 98.4528 30.2918 100.232 26.7524C106.03 15.2069 114.679 7.98652 122.213 3.58077C118.664 0.766411 113.858 -0.511916 108.784 0.87446Z"
        fill="white" />
    <path
        d="M78.565 73.6013C72.8516 80.8018 65.3604 84.5449 57.3608 86.1157C41.4093 89.2296 26.8783 97.3899 15.5351 109.063C13.965 110.681 12.3956 112.313 10.8271 113.959L10.9072 114.061C10.9072 114.061 35.6959 94.9201 42.0868 102.341L52.4308 114.383C59.0003 122.04 70.9978 121.301 76.6331 112.934C90.4035 92.476 102.793 71.202 113.86 49.1413C103.685 52.1632 90.2681 58.8703 78.565 73.6013Z"
        fill="white" />
</svg>
