<svg fill="none" height="22" viewBox="0 0 23 22" width="23" xmlns="http://www.w3.org/2000/svg">
    <path
        d="M15.1667 20.1667C15.1667 20.1667 15.1667 18.3954 15.1674 18.3921C15.4869 18.2333 15.7947 18.0543 16.089 17.8569C16.5369 17.5566 16.9537 17.2136 17.3336 16.8336C18.8266 15.3407 19.75 13.2782 19.75 11H3.25C3.25 13.2782 4.17341 15.3407 5.66638 16.8336C6.04978 17.2171 6.47075 17.5629 6.92331 17.8652C7.21596 18.0607 7.52185 18.238 7.83934 18.3954L7.83333 20.1667H15.1667Z"
        fill="white" stroke="white" stroke-linecap="round" stroke-linejoin="round"
        stroke-width="2" />
    <path d="M11.5 8.25376V3.66663" stroke="white" stroke-linecap="round" stroke-linejoin="round"
        stroke-width="2" />
    <path d="M17 8.2538V5.5" stroke="white" stroke-linecap="round" stroke-linejoin="round"
        stroke-width="2" />
    <path d="M6 8.2538V5.5" stroke="white" stroke-linecap="round" stroke-linejoin="round"
        stroke-width="2" />
    <path d="M18.8333 3.66663C17.8208 3.66663 17 4.48744 17 5.49996" stroke="white"
        stroke-linecap="round" stroke-linejoin="round" stroke-width="2" />
    <path d="M13.3333 1.83337C12.3208 1.83337 11.5 2.65418 11.5 3.66671" stroke="white"
        stroke-linecap="round" stroke-linejoin="round" stroke-width="2" />
    <path d="M7.83333 3.66663C6.82083 3.66663 6 4.48744 6 5.49996" stroke="white"
        stroke-linecap="round" stroke-linejoin="round" stroke-width="2" />
</svg>
