<svg fill="none" height="26" viewBox="0 0 26 26" width="26" xmlns="http://www.w3.org/2000/svg">
    <g clip-path="url(#clip0_82_6447)">
        <path
            d="M10.0712 20.4576L10.3485 18.6963L9.73078 18.682H6.78125L8.83102 5.68506C8.83739 5.64583 8.85806 5.60924 8.88829 5.58326C8.91851 5.55728 8.95721 5.54297 8.99751 5.54297H13.9708C15.6219 5.54297 16.7613 5.88654 17.3562 6.56467C17.6351 6.8828 17.8127 7.21524 17.8986 7.58108C17.9887 7.96495 17.9903 8.42357 17.9023 8.98294L17.8959 9.02377V9.38218L18.1748 9.54019C18.4097 9.66478 18.5963 9.80741 18.7395 9.97071C18.9781 10.2427 19.1324 10.5884 19.1976 10.9982C19.2649 11.4198 19.2427 11.9213 19.1324 12.4892C19.0051 13.1424 18.7994 13.7113 18.5216 14.1768C18.266 14.6058 17.9405 14.9615 17.554 15.2372C17.1849 15.4992 16.7465 15.698 16.2507 15.8252C15.7703 15.9504 15.2226 16.0135 14.6219 16.0135H14.2349C13.9581 16.0135 13.6893 16.1131 13.4783 16.2918C13.2667 16.4742 13.1267 16.7234 13.0838 16.9959L13.0546 17.1545L12.5647 20.2588L12.5425 20.3728C12.5366 20.4089 12.5266 20.4269 12.5117 20.4391C12.4985 20.4502 12.4794 20.4576 12.4608 20.4576H10.0712Z"
            fill="#253B80" />
        <path
            d="M18.4391 9.06506C18.4242 9.15997 18.4073 9.257 18.3882 9.35668C17.7323 12.724 15.4885 13.8873 12.6227 13.8873H11.1636C10.8131 13.8873 10.5178 14.1418 10.4632 14.4875L9.71615 19.2254L9.5046 20.5684C9.46907 20.7953 9.64404 21 9.87309 21H12.461C12.7675 21 13.0278 20.7773 13.0761 20.4751L13.1015 20.3436L13.5888 17.2514L13.62 17.0818C13.6678 16.7785 13.9286 16.5558 14.2351 16.5558H14.6221C17.1295 16.5558 19.0923 15.5378 19.666 12.592C19.9056 11.3614 19.7816 10.3338 19.1474 9.61117C18.9555 9.39326 18.7174 9.21246 18.4391 9.06506Z"
            fill="#179BD7" />
        <path
            d="M17.7527 8.79156C17.6525 8.7624 17.5491 8.73589 17.443 8.71203C17.3365 8.6887 17.2272 8.66803 17.1148 8.65C16.7214 8.58637 16.2904 8.55615 15.8286 8.55615H11.9305C11.8345 8.55615 11.7433 8.57789 11.6617 8.61713C11.4819 8.70355 11.3483 8.87375 11.316 9.08212L10.4867 14.3343L10.4629 14.4876C10.5175 14.1419 10.8128 13.8874 11.1633 13.8874H12.6224C15.4882 13.8874 17.732 12.7236 18.3879 9.35676C18.4075 9.25708 18.4239 9.16006 18.4388 9.06515C18.2728 8.97714 18.0931 8.90185 17.8995 8.83769C17.8518 8.82179 17.8025 8.80641 17.7527 8.79156Z"
            fill="#222D65" />
        <path
            d="M11.3161 9.08205C11.3485 8.87368 11.4821 8.70348 11.6618 8.61759C11.744 8.57835 11.8347 8.55662 11.9306 8.55662H15.8287C16.2905 8.55662 16.7216 8.58684 17.115 8.65046C17.2274 8.66849 17.3366 8.68917 17.4432 8.7125C17.5492 8.73636 17.6526 8.76287 17.7528 8.79203C17.8027 8.80687 17.852 8.82225 17.9002 8.83763C18.0937 8.90178 18.2735 8.9776 18.4394 9.06508C18.6346 7.82069 18.4379 6.97342 17.765 6.20622C17.0233 5.3616 15.6845 5 13.9714 5H8.99808C8.64814 5 8.34964 5.2545 8.29556 5.60072L6.22405 18.7313C6.18322 18.9911 6.38364 19.2254 6.64556 19.2254H9.71598L10.4869 14.3343L11.3161 9.08205Z"
            fill="#253B80" />
    </g>
    <rect height="25" rx="12.5" stroke="#FF9574" width="25" x="0.5" y="0.5" />
    <defs>
        <clipPath id="clip0_82_6447">
            <rect fill="white" height="16" transform="translate(5 5)" width="16" />
        </clipPath>
    </defs>
</svg>
