<svg fill="none" height="22" viewBox="0 0 22 22" width="22" xmlns="http://www.w3.org/2000/svg">
    <path
        d="M3.20801 16.9583C3.20801 13.4276 3.20801 5.04166 3.20801 5.04166C3.20801 3.52287 4.43922 2.29166 5.95801 2.29166H16.0413V14.2083C16.0413 14.2083 8.35628 14.2083 5.95801 14.2083C4.44551 14.2083 3.20801 15.4386 3.20801 16.9583Z"
        stroke="#82858A" stroke-linejoin="round" stroke-width="2" />
    <path
        d="M16.0413 14.2083C16.0413 14.2083 6.48679 14.2083 5.95801 14.2083C4.43922 14.2083 3.20801 15.4396 3.20801 16.9583C3.20801 18.4771 4.43922 19.7083 5.95801 19.7083C6.97051 19.7083 11.8594 19.7083 18.7913 19.7083V3.20834"
        stroke="#82858A" stroke-linecap="round" stroke-linejoin="round" stroke-width="2" />
    <path d="M6.41699 16.9583H15.5837" stroke="#82858A" stroke-linecap="round"
        stroke-linejoin="round" stroke-width="2" />
</svg>
