<svg fill="none" height="42" viewBox="0 0 42 42" width="42" xmlns="http://www.w3.org/2000/svg">
    <rect fill="#F7F7F7" height="42" rx="21" width="42" />
    <g clip-path="url(#clip0_31_1934)">
        <path
            d="M25.7573 17.6891C26.2262 18.3616 26.5561 19.1382 26.7055 19.9773H28.5V22.0227H26.7055C26.5561 22.8618 26.2262 23.6384 25.7573 24.3109L27.0265 25.5801L25.5801 27.0265L24.3109 25.7573C23.6384 26.2262 22.8618 26.5561 22.0227 26.7055V28.5H19.9773V26.7055C19.1382 26.5561 18.3616 26.2262 17.6891 25.7573L16.4199 27.0265L14.9735 25.5801L16.2428 24.3109C15.7739 23.6384 15.4439 22.8618 15.2945 22.0227H13.5V19.9773H15.2945C15.4439 19.1382 15.7739 18.3616 16.2428 17.6891L14.9735 16.4199L16.4199 14.9735L17.6891 16.2428C18.3616 15.7739 19.1382 15.4439 19.9773 15.2945V13.5H22.0227V15.2945C22.8618 15.4439 23.6384 15.7739 24.3109 16.2428L25.5801 14.9735L27.0265 16.4199L25.7573 17.6891Z"
            stroke="#6E6E6E" stroke-linejoin="round" stroke-width="2" />
        <path
            d="M21 22.875C22.0355 22.875 22.875 22.0355 22.875 21C22.875 19.9645 22.0355 19.125 21 19.125C19.9645 19.125 19.125 19.9645 19.125 21C19.125 22.0355 19.9645 22.875 21 22.875Z"
            stroke="#6E6E6E" stroke-linejoin="round" stroke-width="2" />
    </g>
    <defs>
        <clipPath id="clip0_31_1934">
            <rect fill="white" height="18" transform="translate(12 12)" width="18" />
        </clipPath>
    </defs>
</svg>
