<svg fill="none" height="16" viewBox="0 0 16 16" width="16" xmlns="http://www.w3.org/2000/svg">
    <g clip-path="url(#clip0_388_1215)">
        <path
            d="M7.99998 14.6668C9.84091 14.6668 11.5076 13.9206 12.714 12.7142C13.9204 11.5078 14.6666 9.8411 14.6666 8.00016C14.6666 6.15923 13.9204 4.49256 12.714 3.28612C11.5076 2.07969 9.84091 1.3335 7.99998 1.3335C6.15905 1.3335 4.49238 2.07969 3.28593 3.28612C2.07951 4.49256 1.33331 6.15923 1.33331 8.00016C1.33331 9.8411 2.07951 11.5078 3.28593 12.7142C4.49238 13.9206 6.15905 14.6668 7.99998 14.6668Z"
            fill="#FF5722" stroke="#FF5722" stroke-linejoin="round" />
        <path d="M5.33331 8L7.33331 10L11.3333 6" stroke="white" stroke-linecap="round"
            stroke-linejoin="round" />
    </g>
    <defs>
        <clipPath id="clip0_388_1215">
            <rect fill="white" height="16" rx="8" width="16" />
        </clipPath>
    </defs>
</svg>
